<svg width="528" height="528" viewBox="0 0 528 528" fill="none" xmlns="http://www.w3.org/2000/svg">
<path d="M271.927 187.06C272.332 180.463 275.071 176.019 280.498 173.152C285.032 170.757 291.745 170.593 296.323 172.766C308.486 178.537 308.747 196.477 296.761 202.8C291.214 205.726 286.328 205.749 280.634 202.875C274.382 199.72 271.474 194.437 271.927 187.06Z" fill="url(#paint0_linear_12_19)"/>
<path fill-rule="evenodd" clip-rule="evenodd" d="M17.8476 160.554C9.18158 163.18 1.98223 171.287 0.168057 182.067C-1.96159 200.178 16.5368 215.223 33.6682 208.067C38.093 206.218 44.5733 203.067 48.3588 193.722C49.8013 190.161 103.051 194.125 114.325 194.125L134.083 214.625L153.841 235.125H194.182H234.524L235.208 229.375C235.584 226.212 236.234 221.712 236.651 219.375L237.41 215.125L202.289 215.156L167.168 215.187L147.668 195.039L128.168 174.891C101.797 174.264 85.8025 174.794 49.4791 174.742L45.2173 169.573C38.2298 161.096 27.6077 157.597 17.8476 160.554ZM13.6681 185.067C12.2866 178.122 18.5383 173.048 22.8015 172.358C31.0904 172.358 35.9255 176.351 35.9255 184.1C35.9255 189.426 30.535 195.152 25.5216 195.152C16.5849 195.152 13.6681 188.649 13.6681 185.067Z" fill="url(#paint1_linear_12_19)"/>
<path fill-rule="evenodd" clip-rule="evenodd" d="M83.6681 105.096V160.125H108.56H133.452L152.718 180.125L171.983 200.125H206.326C239.067 200.125 240.668 200.039 240.668 198.276C240.668 194.811 248.721 168.876 253.168 158.018C261.691 137.208 272.334 117.682 283.496 102.375C286.003 98.9376 288.378 96.1246 288.774 96.1246C289.926 96.1246 304.886 118.748 310.529 129.024C328.637 162 339.339 197.622 342.76 236.311L343.936 249.622L357.802 265.781L371.668 281.941V312.866C371.668 329.875 371.435 344.024 371.151 344.309C370.866 344.593 352.327 331.154 329.951 314.445C307.576 297.735 288.724 284.273 288.058 284.529C287.392 284.784 268.843 298.484 246.838 314.973C224.833 331.462 206.168 344.567 205.668 345.067C205.668 344.567 206.204 338.326 206.204 337.317C202.704 337.317 179.357 336.375 174.664 336.375L123.338 287.067C117.282 286.975 112.174 288.938 105.869 283.834C100.215 279.257 98.2292 274.947 98.6682 268.207C99.1172 261.3 102.678 256.055 108.806 253.272C116.744 249.667 124.519 251.289 130.173 257.728C134.138 262.244 134.857 264.927 134.083 272.329L133.668 276.067C134.272 277.026 180.668 322.375 180.668 322.375H193.436H206.204L205.668 282.093L219.561 265.859L233.455 249.625L190.215 249.125L146.974 248.625L127.571 228.387L108.168 208.149L95.9181 208.137L83.6681 208.125V256.125V304.125H95.4911H107.313L124.288 322.375C133.625 332.413 147.092 347.025 154.216 354.848C166.832 368.702 167.26 369.059 170.706 368.62C175.92 367.956 181.306 369.803 185.683 373.758C200.832 387.444 184.711 411.793 166.168 403.235C161.54 401.099 158.251 397.813 156.735 393.81C155.388 390.257 155.353 382.581 156.672 380.117C157.737 378.128 151.749 371.27 115.862 333.375L101.42 318.125C83.8709 318.125 71.6109 316.827 48.1417 316.827L46.2788 313.347C41.4073 304.243 30.2436 299.519 19.6227 302.067C2.2902 306.225 -4.46564 327.302 7.12153 341.072C11.595 346.389 17.6593 348.992 25.5757 348.992C34.1743 348.992 40.2762 346.031 44.6223 339.751L48.3588 334.351C54.6967 334.341 93.6681 333.816 93.6681 334.685C93.6681 334.993 91.3051 337.742 88.4181 340.795L83.1681 346.346C82.9636 387.213 82.5941 437.711 83.1681 477.625C132.895 477.625 205.437 481.587 232.668 461.125C271.927 431.625 273.758 368.62 259.668 327.344L273.758 316.984C281.508 311.287 288.408 306.675 289.091 306.736C289.774 306.797 296.483 311.465 304 317.109L317.668 327.37L317.679 337.998C317.702 361.017 331.918 442.125 228.918 477.625C253.763 477.625 359.446 477.625 394.062 477.625C414.687 477.625 479.836 477.625 503.678 414.567C509.539 399.067 509.508 359.836 503.678 343.881C491.546 310.675 460.091 282.482 420.845 269.636L412.522 266.912L422.899 261.769C435.569 255.488 445.187 248.469 454.375 238.796C467.138 225.36 474.996 211.131 479.836 192.692C482.41 182.887 483.447 160.134 481.803 149.548C475.076 106.246 446.477 72.9217 403.075 57.8147C399.526 56.5794 396.821 55.558 394.062 54.712C380.002 50.4006 364.545 50.6449 228.918 50.3656L83.6681 50.0667V105.096ZM18.2155 332.25C13.7674 327.517 14.0368 321.32 18.8695 317.161C28.898 308.536 41.7048 322.933 32.337 332.3C28.0149 336.622 22.303 336.602 18.2155 332.25Z" fill="url(#paint2_linear_12_19)"/>
<path d="M113.334 265.567C109.776 269.123 111.904 274.53 116.862 274.53C121.642 274.53 124.008 268.896 120.714 265.36C118.631 263.123 115.694 263.206 113.334 265.567Z" fill="url(#paint3_linear_12_19)"/>
<path d="M169.64 383.604C166.082 387.16 168.21 392.567 173.168 392.567C177.948 392.567 180.314 386.933 177.02 383.397C174.937 381.161 172 381.243 169.64 383.604Z" fill="url(#paint4_linear_12_19)"/>
<defs>
<linearGradient id="paint0_linear_12_19" x1="253.668" y1="98.0667" x2="271.078" y2="530.752" gradientUnits="userSpaceOnUse">
<stop stop-color="#0278FD"/>
<stop offset="0.670989" stop-color="#014299"/>
<stop offset="1" stop-color="#011C54"/>
</linearGradient>
<linearGradient id="paint1_linear_12_19" x1="253.668" y1="98.0667" x2="271.078" y2="530.752" gradientUnits="userSpaceOnUse">
<stop stop-color="#0278FD"/>
<stop offset="0.670989" stop-color="#014299"/>
<stop offset="1" stop-color="#011C54"/>
</linearGradient>
<linearGradient id="paint2_linear_12_19" x1="253.668" y1="98.0667" x2="271.078" y2="530.752" gradientUnits="userSpaceOnUse">
<stop stop-color="#0278FD"/>
<stop offset="0.670989" stop-color="#014299"/>
<stop offset="1" stop-color="#011C54"/>
</linearGradient>
<linearGradient id="paint3_linear_12_19" x1="253.668" y1="98.0667" x2="271.078" y2="530.752" gradientUnits="userSpaceOnUse">
<stop stop-color="#0278FD"/>
<stop offset="0.670989" stop-color="#014299"/>
<stop offset="1" stop-color="#011C54"/>
</linearGradient>
<linearGradient id="paint4_linear_12_19" x1="253.668" y1="98.0667" x2="271.078" y2="530.752" gradientUnits="userSpaceOnUse">
<stop stop-color="#0278FD"/>
<stop offset="0.670989" stop-color="#014299"/>
<stop offset="1" stop-color="#011C54"/>
</linearGradient>
</defs>
</svg>
