<svg width="430" height="430" viewBox="0 0 430 430" fill="none" xmlns="http://www.w3.org/2000/svg">
<path d="M175.11 137.242C175.56 130.623 178.605 126.164 184.639 123.287C189.68 120.884 197.144 120.719 202.234 122.9C215.757 128.69 216.047 146.691 202.721 153.035C196.554 155.971 191.121 155.994 184.791 153.11C177.839 149.945 174.606 144.644 175.11 137.242Z" fill="url(#paint0_linear_21_3)"/>
<path fill-rule="evenodd" clip-rule="evenodd" d="M3.28712 159.279C14.3481 162.886 109.227 200.721 129.148 201.382C129.197 201.384 129.245 201.385 129.293 201.386C130.011 201.404 130.628 201.371 131.135 201.284C131.503 200.896 131.865 200.514 132.336 200.018C132.336 196.541 149.309 118.997 154.253 108.102C163.729 87.2216 175.562 67.6297 187.973 52.2711C190.76 48.8225 193.401 46 193.841 46C195.122 46 211.755 68.6993 218.029 79.01C238.161 112.097 250.06 147.84 253.864 186.659L255.171 200.015L270.588 216.229L286.004 232.443V263.472C286.004 280.539 285.745 294.736 285.43 295.022C285.113 295.306 264.501 281.822 239.622 265.057C214.745 248.29 193.785 234.783 193.045 235.04C192.304 235.296 171.681 249.042 147.215 265.587C122.75 282.131 101.997 295.28 101.442 295.782C101.442 284.568 101.996 270.23 101.442 232.596L116.888 216.307L131.135 201.284L132.336 200.018L3.28712 159.279C3.28712 249.106 1.49542 338.96 2.78712 428.779C52.5144 428.779 104.398 426.078 132.336 402.462C161.48 377.827 165.872 334.867 161.48 277.999L177.146 267.604C185.762 261.888 193.434 257.261 194.193 257.322C194.953 257.383 202.412 262.067 210.769 267.73L225.966 278.025C226.062 362.209 176.08 414.794 95.2827 428.774C122.906 428.774 279.065 428.779 313.681 428.779C334.306 428.779 399.455 428.779 423.297 365.721C429.158 350.221 429.127 310.99 423.297 295.035C411.165 261.829 379.71 233.636 340.464 220.79L332.141 218.066L342.518 212.923C355.188 206.642 364.806 199.623 373.994 189.95C386.757 176.514 394.615 162.285 399.455 143.846C402.029 134.041 403.066 111.288 401.422 100.702C394.695 57.4 366.096 24.0759 322.694 8.96895C319.145 7.73373 316.44 6.71231 313.681 5.8663C299.621 1.55494 284.164 1.79915 148.537 1.51994L3.28712 1.22095V159.279Z" fill="url(#paint1_linear_21_3)"/>
<path d="M3.28712 159.279C5.76547 160.087 12.4518 162.614 21.5601 166.056C53.1026 177.975 113.691 200.869 129.148 201.382C129.197 201.384 129.245 201.385 129.293 201.386C130.011 201.404 130.628 201.371 131.135 201.284L132.336 200.018L3.28712 159.279Z" fill="url(#paint2_linear_21_3)"/>
<defs>
<linearGradient id="paint0_linear_21_3" x1="173.287" y1="49.221" x2="190.697" y2="481.906" gradientUnits="userSpaceOnUse">
<stop stop-color="#0278FD"/>
<stop offset="0.670989" stop-color="#014299"/>
<stop offset="1" stop-color="#011C54"/>
</linearGradient>
<linearGradient id="paint1_linear_21_3" x1="173.287" y1="49.221" x2="190.697" y2="481.906" gradientUnits="userSpaceOnUse">
<stop stop-color="#0278FD"/>
<stop offset="0.670989" stop-color="#014299"/>
<stop offset="1" stop-color="#011C54"/>
</linearGradient>
<linearGradient id="paint2_linear_21_3" x1="173.287" y1="49.221" x2="190.697" y2="481.906" gradientUnits="userSpaceOnUse">
<stop stop-color="#0278FD"/>
<stop offset="0.670989" stop-color="#014299"/>
<stop offset="1" stop-color="#011C54"/>
</linearGradient>
</defs>
</svg>
